<mxfile host="app.diagrams.net" modified="2022-11-10T15:52:52.515Z" agent="5.0 (Windows NT 10.0; Win64; x64) AppleWebKit/537.36 (KHTML, like Gecko) Chrome/107.0.0.0 Safari/537.36 Edg/107.0.1418.35" etag="iNKp1YLUkyTLWRpaMeyE" version="20.5.3" type="github">
  <diagram id="6UM_mQ-8TQhk4CjloPjo" name="第 1 页">
    <mxGraphModel dx="721" dy="493" grid="1" gridSize="10" guides="1" tooltips="1" connect="1" arrows="1" fold="1" page="1" pageScale="1" pageWidth="827" pageHeight="1169" math="0" shadow="0">
      <root>
        <mxCell id="0" />
        <mxCell id="1" parent="0" />
        <mxCell id="tsMORkh10g2GEG3-gYEs-1" value="" style="rounded=0;whiteSpace=wrap;html=1;" vertex="1" parent="1">
          <mxGeometry x="260" y="100" width="140" height="300" as="geometry" />
        </mxCell>
        <mxCell id="tsMORkh10g2GEG3-gYEs-2" value="&lt;b&gt;&lt;font style=&quot;font-size: 14px;&quot;&gt;input_reg&lt;/font&gt;&lt;/b&gt;" style="text;html=1;strokeColor=none;fillColor=none;align=center;verticalAlign=middle;whiteSpace=wrap;rounded=0;" vertex="1" parent="1">
          <mxGeometry x="295" y="100" width="70" height="40" as="geometry" />
        </mxCell>
      </root>
    </mxGraphModel>
  </diagram>
</mxfile>
